HIERARCHY
ROOT Hips
{
	OFFSET -3.958830 18.904000 13.208200
	CHANNELS 6 Xposition Yposition Zposition Zrotation Yrotation Xrotation 
	JOINT LHipJoint
	{
		OFFSET 0.000000 0.000000 0.000000
		CHANNELS 3 Zrotation Yrotation Xrotation
		JOINT LeftUpLeg
		{
			OFFSET 1.800000 -1.400000 0.085000
			CHANNELS 3 Zrotation Yrotation Xrotation
			JOINT LeftLeg
			{
				OFFSET 2.215000 -6.000000 0.000000
				CHANNELS 3 Zrotation Yrotation Xrotation
				JOINT LeftFoot
				{
					OFFSET 2.500000 -6.900000 0.000000
					CHANNELS 3 Zrotation Yrotation Xrotation
					JOINT LeftToeBase
					{
						OFFSET 0.200000 -0.500000 1.950000
						CHANNELS 3 Zrotation Yrotation Xrotation
						End Site
						{
							OFFSET 0.000000 0.000000 0.000000
						}
					}
				}
			}
		}
	}
	JOINT RHipJoint
	{
		OFFSET 0.000000 0.000000 0.000000
		CHANNELS 3 Zrotation Yrotation Xrotation
		JOINT RightUpLeg
		{
			OFFSET -1.800000 -1.400000 0.085000
			CHANNELS 3 Zrotation Yrotation Xrotation
			JOINT RightLeg
			{
				OFFSET -2.215000 -6.000000 0.000000
				CHANNELS 3 Zrotation Yrotation Xrotation
				JOINT RightFoot
				{
					OFFSET -2.500000 -6.900000 0.000000
					CHANNELS 3 Zrotation Yrotation Xrotation
					JOINT RightToeBase
					{
						OFFSET -0.200000 -0.500000 1.950000
						CHANNELS 3 Zrotation Yrotation Xrotation
						End Site
						{
							OFFSET 0.000000 0.000000 0.000000
						}
					}
				}
			}
		}
	}
	JOINT LowerBack
	{
		OFFSET 0.000000 0.000000 0.000000
		CHANNELS 3 Zrotation Yrotation Xrotation
		JOINT Spine
		{
			OFFSET -0.087000 1.940000 -0.288900
			CHANNELS 3 Zrotation Yrotation Xrotation
			JOINT Spine1
			{
				OFFSET 0.000000 1.950000 0.060000
				CHANNELS 3 Zrotation Yrotation Xrotation
				JOINT Neck
				{
					OFFSET 0.000000 0.000000 0.000000
					CHANNELS 3 Zrotation Yrotation Xrotation
					JOINT Neck1
					{
						OFFSET 0.000000 1.600000 0.340000
						CHANNELS 3 Zrotation Yrotation Xrotation
						JOINT Head
						{
							OFFSET 0.000000 1.667000 -0.240000
							CHANNELS 3 Zrotation Yrotation Xrotation
							End Site
							{
								OFFSET 0.000000 0.000000 0.000000
							}
						}
					}
				}
				JOINT LeftShoulder
				{
					OFFSET 0.000000 0.000000 0.000000
					CHANNELS 3 Zrotation Yrotation Xrotation
					JOINT LeftArm
					{
						OFFSET 2.700000 1.550000 -0.730000
						CHANNELS 3 Zrotation Yrotation Xrotation
						JOINT LeftForeArm
						{
							OFFSET 5.450000 0.000000 0.000000
							CHANNELS 3 Zrotation Yrotation Xrotation
							JOINT LeftHand
							{
								OFFSET 3.450000 0.000000 0.000000
								CHANNELS 3 Zrotation Yrotation Xrotation
								JOINT LeftHandIndex1
								{
									OFFSET 0.750000 0.000000 0.000000
									CHANNELS 3 Zrotation Yrotation Xrotation
									End Site
									{
										OFFSET 0.000000 0.000000 0.000000
									}
								}
							}
						}
					}
				}
				JOINT RightShoulder
				{
					OFFSET 0.000000 0.000000 0.000000
					CHANNELS 3 Zrotation Yrotation Xrotation
					JOINT RightArm
					{
						OFFSET -2.700000 1.550000 -0.730000
						CHANNELS 3 Zrotation Yrotation Xrotation
						JOINT RightForeArm
						{
							OFFSET -5.450000 0.000000 0.000000
							CHANNELS 3 Zrotation Yrotation Xrotation
							JOINT RightHand
							{
								OFFSET -3.450000 0.000000 0.000000
								CHANNELS 3 Zrotation Yrotation Xrotation
								JOINT RightHandIndex1
								{
									OFFSET -0.750000 0.000000 0.000000
									CHANNELS 3 Zrotation Yrotation Xrotation
									End Site
									{
										OFFSET 0.000000 0.000000 0.000000
									}
								}
							}
						}
					}
				}
			}
		}
	}
}
MOTION
Frames: 13
Frame Time: 0.016667
1.766140 17.172840 -7.148480 2.759285 32.111126 -4.896826 -15.231989 12.522367 3.360809 -4.272745 1.507477 4.664262 -10.418562 6.504619 8.121429 -0.101298 5.265410 3.018433 0.365390 -0.080240 0.349510 18.316863 -10.845094 3.311688 3.858382 0.399954 -7.520039 7.608339 -4.145381 2.911227 -0.429909 -3.458841 3.153053 -0.012110 0.374470 0.538870 -4.468144 -0.069274 -8.246129 19.271394 -4.167956 12.079716 -8.091280 -2.542603 11.512069 6.162195 3.186921 -14.785220 5.570089 -8.836918 33.198265 -8.090450 -6.429540 -7.940730 -12.304019 -17.172432 8.250054 -6.160894 1.220119 0.631073 10.161067 -2.451758 -0.925504 -4.173730 2.846628 0.519430 0.219120 0.047310 0.236180 -0.735301 18.236177 10.370329 20.950927 8.973494 -10.658112 -32.355455 48.365705 -14.480839 1.662342 -1.479027 -0.137160 0.142400 0.039230 -0.113190 
1.719860 17.188110 -7.167100 2.184465 30.395662 -4.321167 -15.234457 12.504452 3.394966 -4.094561 1.551624 4.588957 -10.416908 6.045143 5.485283 -0.140186 5.164104 3.057634 0.354500 -0.103800 0.355390 18.331353 -10.754697 3.326266 4.539838 0.581034 -8.145146 7.133592 -3.938190 2.220044 -0.408360 -3.364413 3.175181 -0.017150 0.392180 0.558290 -4.383335 -0.182167 -8.256871 18.903441 -4.360685 11.940940 -7.810299 -2.844346 10.469622 6.210741 3.241506 -14.234426 5.735402 -7.893498 32.668047 -8.356500 -5.171020 -7.868840 -11.814099 -15.607641 7.670446 -6.516347 1.602332 0.685554 9.102083 -3.083779 -0.950661 -4.205773 2.838645 0.522990 0.242090 0.037820 0.225150 -1.350691 16.460666 9.926026 21.711327 9.525241 -9.550012 -31.025328 46.668396 -13.178377 1.676851 -1.492168 -0.148500 0.136860 0.057780 -0.127330 
1.665810 17.205770 -7.188800 1.693760 28.568577 -3.970272 -15.247204 12.523026 3.460265 -3.926922 1.577649 4.655996 -10.427833 5.655455 3.098563 -0.161519 5.090597 3.077409 0.361040 -0.106980 0.383490 18.324595 -10.653049 3.347404 4.851824 0.686831 -8.422316 7.076637 -3.802840 1.497068 -0.408055 -3.290857 3.190136 -0.017110 0.369750 0.555610 -4.264407 -0.384303 -8.320801 18.542768 -4.587584 12.365903 -7.581117 -2.979564 9.359180 6.303709 3.091627 -13.991723 5.505513 -7.063928 32.873111 -8.713320 -4.077760 -8.412820 -11.557811 -14.315196 7.230270 -6.736059 2.366672 0.627093 9.165627 -3.001427 -0.939599 -4.207724 2.825649 0.548640 0.229450 0.049810 0.211160 -1.852751 15.346818 9.740657 22.264844 9.821452 -8.754701 -30.110706 44.724166 -12.092584 1.706356 -1.495930 -0.158130 0.132040 0.057040 -0.150360 
1.607800 17.213010 -7.207170 1.262852 26.762425 -3.397421 -15.256652 12.510391 3.499175 -3.815285 1.536414 4.401231 -10.358875 5.324341 1.278470 -0.192789 5.037044 3.103416 0.344250 -0.134950 0.400400 18.321132 -10.592225 3.362081 4.928539 0.790914 -8.758938 7.145270 -3.704057 0.825293 -0.388859 -3.265192 3.201258 -0.022230 0.373800 0.553080 -4.162720 -0.464491 -8.352258 17.929079 -4.638462 12.294295 -7.224898 -3.113174 8.898710 6.447010 3.222454 -14.092929 5.859135 -6.403750 32.383083 -9.917700 -2.626560 -7.803980 -11.127757 -13.659083 7.230767 -6.762738 3.950059 0.594131 8.861721 -3.727730 -0.932031 -4.222986 2.812007 0.551710 0.252520 0.035310 0.196600 -2.642703 14.720077 9.762878 22.931981 10.486758 -7.832312 -29.498259 41.444816 -11.021505 1.739419 -1.528620 -0.182960 0.126000 0.061970 -0.175440 
1.547830 17.215910 -7.223250 0.750090 24.792649 -2.684082 -15.256648 12.488157 3.519828 -3.683091 1.430214 3.869738 -10.279103 5.023299 -0.196745 -0.203668 4.968827 3.136140 0.330040 -0.150560 0.407150 18.325889 -10.541004 3.383112 4.824367 0.879034 -9.060805 7.583420 -3.628121 0.020222 -0.380509 -3.265210 3.202812 -0.027700 0.385480 0.558460 -4.090651 -0.510377 -8.375563 17.491078 -4.598204 12.169029 -6.918122 -3.133475 8.197427 6.497332 3.350911 -14.065785 6.205597 -5.567655 31.748323 -10.561220 -1.162780 -7.221990 -10.711464 -12.852292 7.154455 -6.707725 5.738093 0.479748 8.698962 -5.478796 -0.930356 -4.217477 2.826175 0.540750 0.276450 0.026800 0.193220 -3.255279 13.913110 9.627965 23.290631 11.280757 -6.775770 -28.619585 38.260182 -9.881556 1.786706 -1.562926 -0.193210 0.116460 0.060060 -0.183630 
1.486160 17.220460 -7.243390 -0.149919 22.760167 -2.178066 -15.254585 12.493613 3.534521 -3.257986 1.260957 3.321226 -10.050640 4.717987 -1.618178 -0.207595 4.910044 3.159382 0.316850 -0.166600 0.403710 18.330622 -10.465449 3.419309 4.824250 0.951492 -9.110699 8.175771 -3.565876 -0.885517 -0.384431 -3.282272 3.198042 -0.039590 0.393550 0.572050 -4.029672 -0.637368 -8.417650 17.627468 -4.665835 12.295958 -6.692769 -3.115245 7.447274 6.488101 3.261786 -14.097800 6.096868 -4.734082 31.380881 -10.814140 -0.055110 -6.946730 -10.353184 -12.234088 7.137666 -6.557797 7.244188 0.437619 8.181488 -6.195281 -0.918063 -4.225181 2.838022 0.534300 0.292160 0.023790 0.189340 -3.707056 13.431545 9.539324 23.182072 11.640631 -6.031924 -27.699017 35.819619 -8.901747 1.823961 -1.582880 -0.191690 0.101840 0.066110 -0.187060 
1.422230 17.228810 -7.264330 -1.130548 21.005870 -1.655883 -15.259400 12.546108 3.556873 -2.695649 1.049117 2.627560 -9.790576 4.452263 -2.823604 -0.211867 4.868320 3.187238 0.288010 -0.204560 0.394370 18.320189 -10.383862 3.453499 4.813821 1.011302 -9.098980 8.396850 -3.474631 -1.704066 -0.382169 -3.277887 3.208399 -0.063630 0.413370 0.577270 -3.955579 -0.857961 -8.479325 18.022093 -4.786624 12.645071 -6.505691 -2.984347 6.192748 6.465291 2.985485 -14.133406 5.611874 -3.918356 31.328808 -11.086390 0.931900 -6.575100 -10.011057 -11.395491 6.921518 -6.627622 8.447020 0.310108 8.394327 -7.033486 -0.914032 -4.236970 2.827247 0.536520 0.306990 0.017350 0.185730 -4.163462 12.947029 9.578690 23.316300 11.303080 -5.660918 -27.241974 34.435048 -8.286836 1.849309 -1.580870 -0.203200 0.103730 0.078500 -0.190290 
1.358110 17.233770 -7.287370 -2.045841 19.670380 -0.997148 -15.257949 12.592771 3.554956 -2.242518 0.796724 1.660543 -9.133179 4.171776 -3.666814 -0.239051 4.774339 3.234361 0.270550 -0.218490 0.381980 18.315723 -10.334347 3.471644 4.652256 1.062228 -9.192778 8.182852 -3.335573 -2.429797 -0.369736 -3.265691 3.227426 -0.065030 0.439190 0.567270 -3.914388 -1.022594 -8.501887 18.424108 -4.999870 12.839666 -6.316210 -2.973209 4.976801 6.337951 2.635315 -13.982093 5.005371 -3.050023 30.827043 -11.002050 1.771300 -6.310620 -9.132799 -10.249858 6.502800 -7.006132 8.482981 0.226638 8.704209 -6.369279 -0.889402 -4.282995 2.790572 0.528260 0.325390 0.002130 0.190800 -4.910226 12.119943 9.517026 23.871877 11.208378 -5.219269 -27.067885 33.069320 -7.864920 1.870399 -1.590300 -0.221670 0.118500 0.081360 -0.189230 
1.287790 17.239430 -7.303820 -2.421213 18.188713 -0.096787 -15.271656 12.669873 3.587433 -2.140292 0.573747 0.640880 -8.616710 3.930855 -4.369468 -0.252932 4.685009 3.276909 0.243750 -0.254970 0.364890 18.284707 -10.295204 3.475151 3.971759 1.062653 -9.247720 7.731335 -3.197366 -3.109412 -0.354849 -3.246566 3.248775 -0.086860 0.464100 0.560450 -3.815679 -1.246944 -8.557867 18.005262 -4.994956 13.309276 -5.927050 -2.676192 2.988119 6.043167 2.288890 -13.880607 4.388497 -2.215022 31.052650 -10.475220 2.382930 -5.745300 -8.206037 -8.896015 5.947934 -7.190441 8.441090 0.128537 8.892348 -5.953145 -0.864656 -4.323942 2.754360 0.526340 0.334090 -0.013820 0.190370 -5.387140 11.237389 9.534324 24.485200 10.546739 -4.916481 -26.705606 32.425177 -7.408700 1.891420 -1.584293 -0.234610 0.126750 0.094080 -0.187740 
1.216300 17.241690 -7.312870 -2.748437 16.696265 1.323965 -15.283299 12.723679 3.601028 -2.137832 0.280101 -0.872850 -8.018264 3.650975 -5.020750 -0.295496 4.558395 3.337059 0.207920 -0.300260 0.343700 18.260254 -10.252522 3.475142 3.213097 1.154045 -9.735578 7.232688 -3.006362 -3.930746 -0.325764 -3.211835 3.275929 -0.104980 0.497630 0.545860 -3.726041 -1.438287 -8.587364 17.427109 -4.710341 13.074301 -5.145724 -2.287685 0.955619 5.689081 1.928885 -13.694389 3.658375 -1.674808 30.865024 -10.355130 2.893970 -4.949960 -7.313613 -7.516377 5.374092 -7.661780 8.159760 -0.013459 9.149592 -5.625554 -0.844388 -4.366204 2.715102 0.523680 0.351520 -0.039990 0.190460 -5.633934 10.197490 9.438046 24.405444 9.343850 -4.620704 -25.807863 31.897319 -6.701934 1.907599 -1.578767 -0.263790 0.141920 0.108320 -0.189240 
1.150430 17.239790 -7.316600 -3.106199 15.163377 3.005136 -15.262994 12.692184 3.583242 -2.087473 -0.066803 -2.632309 -7.471978 3.351323 -5.696891 -0.336498 4.416954 3.407551 0.173550 -0.331490 0.306250 18.277064 -10.243906 3.463208 2.166253 1.280518 -10.398983 6.943800 -2.827227 -4.741162 -0.294684 -3.220526 3.292270 -0.112380 0.553020 0.539440 -3.737579 -1.430052 -8.554496 17.167135 -4.311587 12.130684 -4.641253 -1.959100 -0.465206 5.251235 1.656526 -13.326532 3.117689 -1.077206 29.819822 -9.974190 3.389670 -3.930140 -6.290328 -6.159965 4.877633 -8.075286 7.911090 -0.147004 9.287337 -5.640729 -0.830616 -4.416452 2.702221 0.494440 0.390500 -0.078010 0.201640 -5.803566 8.869473 9.129865 24.121339 8.452910 -4.165054 -24.724908 30.697105 -5.913523 1.928145 -1.595232 -0.286110 0.156540 0.121000 -0.176580 
1.086670 17.254560 -7.324500 -3.369894 13.542107 4.089660 -15.269518 12.758526 3.622278 -2.050286 -0.321412 -3.772225 -6.867500 3.106133 -6.443432 -0.329800 4.299180 3.448412 0.166920 -0.340480 0.295360 18.252082 -10.202180 3.430650 0.741184 1.338572 -10.760894 6.734025 -2.742379 -4.975219 -0.292330 -3.197749 3.304101 -0.133650 0.549550 0.540300 -3.662493 -1.664145 -8.583805 16.817946 -4.031608 12.116070 -4.238283 -1.480043 -2.059955 4.916851 1.180105 -13.288861 2.121673 -0.541352 30.218033 -9.353780 3.599260 -3.713520 -5.628257 -5.315970 4.674778 -8.055021 7.871621 -0.212633 9.028888 -4.934942 -0.801855 -4.414261 2.702211 0.497030 0.376660 -0.070670 0.206670 -5.726899 8.338326 9.056757 23.336469 7.097220 -3.934412 -23.087361 29.425920 -4.920679 1.971431 -1.584865 -0.273230 0.144150 0.116550 -0.166590 
1.028710 17.255850 -7.336950 -4.175155 12.139892 4.916628 -15.226376 12.750550 3.576976 -1.694712 -0.582889 -4.981610 -6.049789 2.924556 -6.623373 -0.347063 4.181275 3.497169 0.151770 -0.349960 0.264190 18.292859 -10.215172 3.384402 -0.307110 1.417506 -11.157453 6.553938 -2.702494 -4.828324 -0.267247 -3.210418 3.309871 -0.136880 0.581830 0.537930 -3.754037 -1.660265 -8.482064 17.607330 -3.879487 11.421267 -4.291439 -1.338236 -1.796884 4.472568 0.640979 -13.159904 1.115687 0.164130 29.065710 -8.462170 3.764240 -3.103330 -5.004239 -5.113842 4.852752 -7.942336 7.837937 -0.189073 8.606630 -3.655246 -0.798585 -4.448523 2.719292 0.463130 0.396700 -0.098800 0.215620 -5.343292 8.024204 8.818313 21.923970 6.271782 -3.711659 -21.906445 27.153775 -4.183534 2.011574 -1.594521 -0.271640 0.141760 0.122560 -0.149820 
